<?xml version="1.0" encoding="UTF-8" standalone="no" ?>
<!DOCTYPE svg PUBLIC "-//W3C//DTD SVG 1.1//EN" "http://www.w3.org/Graphics/SVG/1.1/DTD/svg11.dtd">
<svg xmlns="http://www.w3.org/2000/svg" xmlns:xlink="http://www.w3.org/1999/xlink" version="1.1" width="1280" height="1024" viewBox="0 0 1280 1024" xml:space="preserve">
<desc>Created with Fabric.js 3.6.3</desc>
<defs>
</defs>
<g transform="matrix(1.9692780337941629 0 0 1.9692780337941629 640.0153846153846 512.012312418764)" id="background-logo"  >
<rect style="stroke: none; stroke-width: 1; stroke-dasharray: none; stroke-linecap: butt; stroke-dashoffset: 0; stroke-linejoin: miter; stroke-miterlimit: 4; fill: rgb(255,255,255); fill-rule: nonzero; opacity: 1;"  paint-order="stroke"  x="-325" y="-260" rx="0" ry="0" width="650" height="520" />
</g>
<g transform="matrix(1.9692780337941629 0 0 1.9692780337941629 389.4354734588161 503.6098756752925)" id="text-logo-path"  >
<path style="stroke: rgb(255,255,255); stroke-width: 0; stroke-dasharray: none; stroke-linecap: butt; stroke-dashoffset: 0; stroke-linejoin: miter; stroke-miterlimit: 10; fill: rgb(51,44,29); fill-rule: nonzero; opacity: 1;"  paint-order="stroke"  transform=" translate(-99.23, 24.75)" d="M 11.55 -27.59 L 11.55 -27.59 Q 9.97 -30.03 9.97 -31.94 Q 9.97 -33.86 11.45 -35.34 Q 12.94 -36.83 15.05 -36.83 Q 17.16 -36.83 18.64 -35.34 Q 20.13 -33.86 20.13 -31.81 Q 20.13 -29.77 18.08 -27.46 L 18.08 -27.46 Q 23.5 -23.5 26.4 -19.7 Q 29.3 -15.91 29.3 -10.92 Q 29.3 -5.94 25.54 -2.48 Q 21.78 0.99 14.85 0.99 L 14.85 0.99 Q 11.68 0.99 8.48 -0.4 Q 5.28 -1.78 3.63 -3.83 L 3.63 -3.83 L 5.15 -5.41 Q 8.05 -3.1 11.42 -3.1 Q 14.78 -3.1 16.93 -4.92 Q 19.07 -6.73 19.07 -10.56 L 19.07 -10.56 Q 19.07 -16.63 14.59 -23.23 L 14.59 -23.23 L 4.62 -10.76 L 2.97 -12.21 Q 7.99 -20.33 11.55 -27.59 Z M 49.37 -15.25 Q 53.66 -15.64 56 -18.51 Q 58.34 -21.38 58.34 -24.32 Q 58.34 -27.26 57.06 -28.84 Q 55.77 -30.43 53.16 -30.43 Q 50.56 -30.43 48.18 -26.73 Q 45.8 -23.03 45.8 -16.83 Q 45.8 -10.63 48.05 -6.86 Q 50.29 -3.1 54.45 -3.1 L 54.45 -3.1 Q 60.79 -3.1 65.21 -8.05 L 65.21 -8.05 L 67.06 -6.86 Q 64.81 -3.3 61.12 -1.16 Q 57.42 0.99 52.8 0.99 L 52.8 0.99 Q 44.95 0.99 40.26 -4.19 Q 35.57 -9.37 35.57 -16.7 Q 35.57 -24.02 40.56 -29.01 Q 45.54 -33.99 54.38 -33.99 L 54.38 -33.99 Q 60.19 -33.99 63.49 -31.28 Q 66.79 -28.58 66.79 -24.42 Q 66.79 -20.26 63.13 -16.73 Q 59.47 -13.2 53.46 -13.2 L 53.46 -13.2 Q 51.41 -13.2 49.5 -13.66 L 49.5 -13.66 L 49.37 -15.25 Z M 96.62 -33.99 L 96.62 -33.99 Q 98.6 -33.99 98.6 -30.23 L 98.6 -30.23 L 98.6 -7.33 Q 98.6 -5.54 99.46 -4.52 Q 100.32 -3.5 102.1 -3.5 Q 103.88 -3.5 106.19 -5.41 L 106.19 -5.41 L 107.38 -3.83 Q 102.1 0.99 96.82 0.99 L 96.82 0.99 Q 88.7 0.99 88.7 -8.71 L 88.7 -8.71 L 88.7 -27.26 Q 85.6 -26 81.18 -25.54 L 81.18 -25.54 Q 80.65 -19.47 77.68 -13.4 L 77.68 -13.4 L 74.98 -14.19 Q 76.82 -18.88 76.96 -25.34 L 76.96 -25.34 Q 74.45 -25.34 72.9 -26.8 Q 71.35 -28.25 71.35 -30.39 Q 71.35 -32.54 72.83 -34.02 Q 74.32 -35.51 76.46 -35.51 Q 78.61 -35.51 80.06 -33.99 Q 81.51 -32.47 81.51 -30.1 L 81.51 -30.1 L 82.76 -30.1 Q 87.98 -30.1 93.85 -33 L 93.85 -33 Q 95.77 -33.99 96.62 -33.99 Z M 127.91 0.99 L 127.91 0.99 Q 120.05 0.99 115.2 -4.06 Q 110.35 -9.11 110.35 -16.5 Q 110.35 -23.89 115.2 -28.94 Q 120.05 -33.99 127.84 -33.99 L 127.84 -33.99 Q 132.2 -33.99 136.36 -31.48 Q 140.51 -28.97 140.51 -24.68 L 140.51 -24.68 Q 140.51 -22.51 138.96 -20.96 Q 137.41 -19.4 135.23 -19.4 Q 133.06 -19.4 131.51 -20.96 Q 129.95 -22.51 129.95 -24.49 Q 129.95 -26.47 131.01 -27.85 Q 132.07 -29.24 133.78 -29.77 L 133.78 -29.77 Q 131.93 -30.56 129.56 -30.56 L 129.56 -30.56 Q 125.14 -30.56 122.86 -26.63 Q 120.58 -22.7 120.58 -16.66 Q 120.58 -10.63 122.86 -6.86 Q 125.14 -3.1 129.56 -3.1 L 129.56 -3.1 Q 135.5 -3.1 139.66 -8.05 L 139.66 -8.05 L 141.5 -6.86 Q 139.33 -3.3 135.8 -1.16 Q 132.26 0.99 127.91 0.99 Z M 153.35 -40.49 Q 151.8 -42.04 151.8 -44.22 Q 151.8 -46.4 153.35 -47.95 Q 154.9 -49.5 157.08 -49.5 Q 159.26 -49.5 160.81 -47.95 Q 162.36 -46.4 162.36 -44.22 Q 162.36 -42.04 160.81 -40.49 Q 159.26 -38.94 157.08 -38.94 Q 154.9 -38.94 153.35 -40.49 Z M 155.83 -33.99 L 155.83 -33.99 Q 162.03 -33.99 162.03 -28.64 L 162.03 -28.64 L 162.03 -7.33 Q 162.03 -5.54 162.89 -4.52 Q 163.75 -3.5 165.53 -3.5 Q 167.31 -3.5 169.62 -5.41 L 169.62 -5.41 L 170.81 -3.83 Q 165.53 0.99 160.25 0.99 L 160.25 0.99 Q 152.13 0.99 152.13 -8.71 L 152.13 -8.71 L 152.13 -30.82 Q 148.5 -29.9 146.59 -27.59 L 146.59 -27.59 L 144.8 -29.63 Q 146.72 -31.61 149.66 -32.8 Q 152.59 -33.99 155.83 -33.99 Z M 169.49 -46.13 Q 171.4 -48.11 174.34 -49.3 Q 177.28 -50.49 180.15 -50.49 Q 183.02 -50.49 184.87 -49.34 Q 186.71 -48.18 186.71 -46.46 L 186.71 -46.46 L 186.71 -7.33 Q 186.71 -5.54 187.57 -4.52 Q 188.43 -3.5 190.21 -3.5 Q 191.99 -3.5 194.3 -5.41 L 194.3 -5.41 L 195.49 -3.83 Q 190.21 0.99 184.93 0.99 L 184.93 0.99 Q 176.81 0.99 176.81 -8.71 L 176.81 -8.71 L 176.81 -47.32 Q 173.18 -46.4 171.27 -44.09 L 171.27 -44.09 L 169.49 -46.13 Z" stroke-linecap="round" />
</g>
<g transform="matrix(1.9692780337941629 0 0 1.9692780337941629 784.4663589605362 518.6062429871204)" id="tagline-2dc31d7f-3d80-4098-ade6-7ebce975afd1-logo-path"  >
<path style="stroke: none; stroke-width: 0; stroke-dasharray: none; stroke-linecap: butt; stroke-dashoffset: 0; stroke-linejoin: miter; stroke-miterlimit: 4; fill: rgb(51,44,29); fill-rule: nonzero; opacity: 1;"  paint-order="stroke"  transform=" translate(-89.385, 15.82)" d="M 6.59 0 L 5.39 0 L 5.39 -44.41 L 6.59 -44.41 L 6.59 -21.77 Q 8 -25.52 10.9 -27.61 Q 13.8 -29.71 17.75 -29.71 L 17.75 -29.71 Q 20.86 -29.71 23.28 -28.43 Q 25.69 -27.16 27.14 -25 Q 28.59 -22.85 29.33 -20.2 Q 30.06 -17.55 30.06 -14.59 L 30.06 -14.59 Q 30.06 -11.6 29.33 -8.95 Q 28.59 -6.3 27.16 -4.13 Q 25.72 -1.96 23.31 -0.69 Q 20.89 0.59 17.75 0.59 L 17.75 0.59 Q 13.8 0.59 10.9 -1.51 Q 8 -3.6 6.59 -7.32 L 6.59 -7.32 L 6.59 0 Z M 6.59 -14.59 L 6.59 -14.59 Q 6.59 -11.87 7.24 -9.42 Q 7.88 -6.97 9.17 -4.97 Q 10.46 -2.96 12.67 -1.77 Q 14.88 -0.59 17.75 -0.59 L 17.75 -0.59 Q 20.07 -0.59 21.94 -1.38 Q 23.82 -2.17 25.09 -3.49 Q 26.37 -4.8 27.23 -6.62 Q 28.1 -8.44 28.48 -10.43 Q 28.86 -12.42 28.86 -14.59 L 28.86 -14.59 Q 28.86 -16.73 28.48 -18.71 Q 28.1 -20.68 27.23 -22.49 Q 26.37 -24.29 25.09 -25.62 Q 23.82 -26.95 21.93 -27.73 Q 20.04 -28.51 17.75 -28.51 L 17.75 -28.51 Q 15.44 -28.51 13.55 -27.73 Q 11.66 -26.95 10.39 -25.62 Q 9.11 -24.29 8.23 -22.49 Q 7.35 -20.68 6.97 -18.71 Q 6.59 -16.73 6.59 -14.59 Z M 36.65 -14.59 L 36.65 -14.59 Q 36.65 -16.93 37.09 -19.1 Q 37.53 -21.27 38.5 -23.22 Q 39.46 -25.17 40.88 -26.6 Q 42.3 -28.04 44.4 -28.87 Q 46.49 -29.71 49.01 -29.71 L 49.01 -29.71 Q 52.12 -29.71 54.54 -28.43 Q 56.95 -27.16 58.39 -25 Q 59.82 -22.85 60.56 -20.2 Q 61.29 -17.55 61.29 -14.59 L 61.29 -14.59 L 61.29 -14.15 L 37.85 -14.15 Q 37.91 -12.04 38.33 -10.11 Q 38.76 -8.17 39.64 -6.43 Q 40.52 -4.69 41.78 -3.4 Q 43.04 -2.11 44.9 -1.35 Q 46.76 -0.59 49.01 -0.59 L 49.01 -0.59 Q 52.41 -0.59 54.89 -2.3 Q 57.36 -4.01 58.71 -7.21 L 58.71 -7.21 L 59.85 -6.71 Q 58.36 -3.22 55.56 -1.32 Q 52.76 0.59 49.01 0.59 L 49.01 0.59 Q 45.88 0.59 43.43 -0.69 Q 40.99 -1.96 39.55 -4.13 Q 38.12 -6.3 37.38 -8.95 Q 36.65 -11.6 36.65 -14.59 Z M 37.85 -15.18 L 37.85 -15.18 L 60.09 -15.18 Q 60.03 -17.26 59.6 -19.16 Q 59.18 -21.06 58.3 -22.78 Q 57.42 -24.49 56.16 -25.75 Q 54.9 -27.01 53.07 -27.76 Q 51.24 -28.51 49.01 -28.51 L 49.01 -28.51 Q 46.23 -28.51 44.06 -27.39 Q 41.89 -26.28 40.59 -24.38 Q 39.29 -22.47 38.6 -20.14 Q 37.91 -17.81 37.85 -15.18 Z M 67.29 -7.21 L 67.29 -7.21 Q 67.29 -9.29 68.01 -10.96 Q 68.73 -12.63 69.92 -13.7 Q 71.1 -14.77 72.76 -15.48 Q 74.41 -16.2 76.16 -16.49 Q 77.9 -16.79 79.83 -16.79 L 79.83 -16.79 L 88.27 -16.79 L 88.27 -19.86 Q 88.27 -23.73 85.77 -26.12 Q 83.26 -28.51 79.39 -28.51 L 79.39 -28.51 Q 75.79 -28.51 73.58 -27.06 Q 71.37 -25.61 70.11 -22.56 L 70.11 -22.56 L 69.02 -23.03 Q 70.43 -26.43 72.93 -28.07 Q 75.44 -29.71 79.39 -29.71 L 79.39 -29.71 Q 83.76 -29.71 86.62 -26.97 Q 89.47 -24.23 89.47 -19.86 L 89.47 -19.86 L 89.47 0 L 88.27 0 L 88.27 -8.53 Q 87.04 -4.28 83.7 -1.85 Q 80.36 0.59 76.05 0.59 L 76.05 0.59 Q 72.19 0.59 69.74 -1.42 Q 67.29 -3.43 67.29 -7.21 Z M 68.5 -7.21 L 68.5 -7.21 Q 68.5 -3.93 70.59 -2.26 Q 72.69 -0.59 76.05 -0.59 L 76.05 -0.59 Q 81.06 -0.59 84.67 -4.38 Q 88.27 -8.17 88.27 -13.21 L 88.27 -13.21 L 88.27 -15.59 L 79.83 -15.59 Q 77.64 -15.59 75.73 -15.18 Q 73.83 -14.77 72.14 -13.84 Q 70.46 -12.92 69.48 -11.22 Q 68.5 -9.52 68.5 -7.21 Z M 99.67 -11.51 L 99.67 -11.51 L 99.67 -29.09 L 100.87 -29.09 L 100.87 -11.51 Q 100.87 -9.7 101.13 -8.13 Q 101.4 -6.56 102.03 -5.16 Q 102.66 -3.75 103.64 -2.75 Q 104.62 -1.76 106.14 -1.17 Q 107.67 -0.59 109.63 -0.59 L 109.63 -0.59 Q 113.99 -0.59 116.91 -3.28 Q 119.82 -5.98 120.97 -10.37 L 120.97 -10.37 Q 121.32 -11.95 121.32 -12.19 L 121.32 -12.19 L 121.32 -29.09 L 122.52 -29.09 L 122.52 0 L 121.32 0 L 121.32 -7.62 Q 119.74 -3.84 116.66 -1.63 Q 113.58 0.59 109.63 0.59 L 109.63 0.59 Q 106.96 0.59 104.99 -0.37 Q 103.01 -1.32 101.87 -3.03 Q 100.72 -4.75 100.2 -6.86 Q 99.67 -8.96 99.67 -11.51 Z M 136.08 -27.89 L 129.11 -27.89 L 129.11 -29.09 L 136.08 -29.09 L 136.08 -37.21 L 137.26 -37.21 L 137.26 -29.09 L 146.02 -29.09 L 146.02 -27.89 L 137.26 -27.89 L 137.26 -6.53 Q 137.26 -3.63 138.37 -2.11 Q 139.48 -0.59 142.24 -0.59 L 142.24 -0.59 Q 143.85 -0.59 146.16 -1.2 L 146.16 -1.2 L 146.4 0 Q 144.2 0.59 142.18 0.59 L 142.18 0.59 Q 136.08 0.59 136.08 -6.53 L 136.08 -6.53 L 136.08 -27.89 Z M 161.07 0.59 L 149.97 -29.09 L 151.23 -29.09 L 161.66 -1.08 L 172.12 -29.09 L 173.38 -29.09 L 157.82 12.77 L 156.5 12.77 L 161.07 0.59 Z" stroke-linecap="round" />
</g>
</svg>